<svg width="223" height="63" viewBox="0 0 223 63" fill="none" xmlns="http://www.w3.org/2000/svg">
<path d="M114.16 15.304V49H105.952V35.128H93.184V49H84.976V15.304H93.184V28.504H105.952V15.304H114.16ZM137.269 49L130.261 36.28H128.293V49H120.085V15.304H133.861C136.517 15.304 138.773 15.768 140.629 16.696C142.517 17.624 143.925 18.904 144.853 20.536C145.781 22.136 146.245 23.928 146.245 25.912C146.245 28.152 145.605 30.152 144.325 31.912C143.077 33.672 141.221 34.92 138.757 35.656L146.533 49H137.269ZM128.293 30.472H133.381C134.885 30.472 136.005 30.104 136.741 29.368C137.509 28.632 137.893 27.592 137.893 26.248C137.893 24.968 137.509 23.96 136.741 23.224C136.005 22.488 134.885 22.12 133.381 22.12H128.293V30.472ZM189.558 15.304V49H181.35V28.792L173.814 49H167.19L159.606 28.744V49H151.398V15.304H161.094L170.55 38.632L179.91 15.304H189.558ZM207.652 49.336C205.188 49.336 202.98 48.936 201.028 48.136C199.076 47.336 197.508 46.152 196.324 44.584C195.172 43.016 194.564 41.128 194.5 38.92H203.236C203.364 40.168 203.796 41.128 204.532 41.8C205.268 42.44 206.228 42.76 207.412 42.76C208.628 42.76 209.588 42.488 210.292 41.944C210.996 41.368 211.348 40.584 211.348 39.592C211.348 38.76 211.06 38.072 210.484 37.528C209.94 36.984 209.252 36.536 208.42 36.184C207.62 35.832 206.468 35.432 204.964 34.984C202.788 34.312 201.012 33.64 199.636 32.968C198.26 32.296 197.076 31.304 196.084 29.992C195.092 28.68 194.596 26.968 194.596 24.856C194.596 21.72 195.732 19.272 198.004 17.512C200.276 15.72 203.236 14.824 206.884 14.824C210.596 14.824 213.588 15.72 215.86 17.512C218.132 19.272 219.348 21.736 219.508 24.904H210.628C210.564 23.816 210.164 22.968 209.428 22.36C208.692 21.72 207.748 21.4 206.596 21.4C205.604 21.4 204.804 21.672 204.196 22.216C203.588 22.728 203.284 23.48 203.284 24.472C203.284 25.56 203.796 26.408 204.82 27.016C205.844 27.624 207.444 28.28 209.62 28.984C211.796 29.72 213.556 30.424 214.9 31.096C216.276 31.768 217.46 32.744 218.452 34.024C219.444 35.304 219.94 36.952 219.94 38.968C219.94 40.888 219.444 42.632 218.452 44.2C217.492 45.768 216.084 47.016 214.228 47.944C212.372 48.872 210.18 49.336 207.652 49.336Z" fill="white"/>
<circle cx="13" cy="13" r="13" fill="#4E8397"/>
<circle cx="52" cy="13" r="13" fill="#4E8397"/>
<circle cx="52" cy="50" r="13" fill="#4E8397"/>
<circle cx="14" cy="50" r="13" fill="#4E8397"/>
</svg>
